<svg width="15" height="22" viewBox="0 0 15 22" fill="none" xmlns="http://www.w3.org/2000/svg">
<path d="M10.5111 1.6511L1.96078 10.4225C1.81061 10.5766 1.72656 10.7832 1.72656 10.9983C1.72656 11.2135 1.81061 11.4201 1.96078 11.5742L10.5111 20.3489C10.581 20.4207 10.6647 20.4778 10.7571 20.5168C10.8494 20.5558 10.9487 20.5759 11.049 20.5759C11.1493 20.5759 11.2485 20.5558 11.3409 20.5168C11.4333 20.4778 11.5169 20.4207 11.5869 20.3489C11.7308 20.2016 11.8114 20.0038 11.8114 19.7978C11.8114 19.5918 11.7308 19.394 11.5869 19.2467L3.54643 10.9983L11.5869 2.75165C11.7303 2.60439 11.8106 2.40694 11.8106 2.20137C11.8106 1.9958 11.7303 1.79836 11.5869 1.6511C11.5169 1.57925 11.4333 1.52214 11.3409 1.48315C11.2485 1.44416 11.1493 1.42407 11.049 1.42407C10.9487 1.42407 10.8494 1.44416 10.7571 1.48315C10.6647 1.52214 10.581 1.57925 10.5111 1.6511Z" fill="white"/>
</svg>
