<svg width="45" height="46" viewBox="0 0 45 46" fill="none" xmlns="http://www.w3.org/2000/svg">
<rect y="0.456543" width="44.9348" height="44.9348" rx="9" fill="white"/>
<g clip-path="url(#clip0_1638_39)">
<path d="M16.1036 32.8613H11.3262V17.3805H16.1036V32.8613ZM13.7123 15.2688C12.1847 15.2688 10.9456 13.9956 10.9456 12.4584C10.9456 11.72 11.2371 11.0119 11.7559 10.4897C12.2748 9.96764 12.9785 9.67432 13.7123 9.67432C14.4461 9.67432 15.1498 9.96764 15.6687 10.4897C16.1876 11.0119 16.4791 11.72 16.4791 12.4584C16.4791 13.9956 15.2395 15.2688 13.7123 15.2688ZM33.9839 32.8613H29.2168V25.3254C29.2168 23.5294 29.1808 21.2261 26.7329 21.2261C24.2491 21.2261 23.8684 23.1774 23.8684 25.196V32.8613H19.0962V17.3805H23.6781V19.4923H23.745C24.3828 18.2759 25.9408 16.9924 28.2652 16.9924C33.1002 16.9924 33.989 20.1962 33.989 24.3575V32.8613H33.9839Z" fill="#022061"/>
</g>
<defs>
<clipPath id="clip0_1638_39">
<rect width="23.0435" height="26.5" fill="white" transform="translate(10.9456 9.67383)"/>
</clipPath>
</defs>
</svg>
