<svg width="35" height="35" viewBox="0 0 35 35" fill="none" xmlns="http://www.w3.org/2000/svg">
<ellipse cx="17.6595" cy="17.3928" rx="17.0487" ry="17.0588" fill="white"/>
<g clip-path="url(#clip0_984_756)">
<path d="M30.6149 15.1324V15.5494C30.4677 15.7353 30.4219 15.9909 30.1483 16.0452L20.6212 10.5364C20.1845 10.3811 19.7756 10.4027 19.3549 10.5886C17.8442 11.2549 16.2634 12.511 14.7485 13.265C12.3131 14.4772 10.6997 11.5251 12.4311 10.1075C14.2827 9.12438 16.0516 7.69357 18.0663 7.10732L18.9862 7.17277L21.9083 8.20045L24.7825 6.54684C25.0699 6.41455 25.3795 6.47234 25.6232 6.66659L30.6149 15.1324Z" fill="#2036A4"/>
<path d="M29.7141 17.6522C31.0054 18.9939 29.5842 21.1244 27.8618 20.5528L28.8226 21.178C29.9904 22.3958 29.0615 24.3627 27.3689 24.1998C26.901 24.1545 26.5733 23.8245 26.147 23.6797C27.4223 24.9538 26.2581 27.1456 24.4808 26.6792C23.958 26.542 23.5269 26.1152 23.0284 25.9209C24.4426 27.3684 22.9493 29.6473 21.0526 28.8139C20.3202 28.4922 19.6239 27.8934 18.8713 27.5871C19.3087 26.6374 20.1612 25.7072 20.2681 24.637C20.4424 22.895 19.4093 21.412 17.7397 20.9573C17.4495 19.6323 16.5157 18.6186 15.1918 18.3004C14.8683 16.2826 12.7161 15.0635 10.8014 15.7493C9.27957 14.2029 6.85109 14.4 5.61881 16.1984C5.32236 16.6308 5.09257 17.1216 4.83639 17.5777C3.6166 17.1314 4.00954 16.5187 4.45039 15.6511C5.75488 13.0833 7.22738 10.5935 8.53881 8.02711C8.89426 7.55018 9.23097 7.56341 9.72667 7.80919C10.3147 8.10022 10.9111 8.53329 11.4914 8.85288C9.63642 10.3463 9.7343 13.334 11.7872 14.6026C13.0292 15.3698 14.274 15.2765 15.5285 14.6207C17.0253 13.8381 18.4777 12.8417 19.9668 12.0313L20.08 12.0132L28.9879 17.1564C29.2142 17.3117 29.5238 17.4551 29.7141 17.6529V17.6522Z" fill="#2036A4"/>
<path d="M10.0889 18.5197C10.425 18.0533 10.6207 17.5519 11.1796 17.295C12.7236 16.5869 14.2044 18.1396 13.5116 19.686C13.4651 19.7897 13.1082 20.2917 13.1547 20.3439C14.6002 18.9382 16.8481 20.4233 16.0386 22.3241C15.9373 22.5615 15.7117 22.7941 15.6492 23.0538C17.0002 21.5944 19.3113 23.0036 18.599 24.8919C18.3873 25.4524 17.4868 26.9459 17.1258 27.4792C15.9109 29.272 13.3852 28.0118 13.9337 25.9718C12.5271 27.4151 10.3201 26.0679 10.92 24.1483C10.8394 24.1573 10.8387 24.2667 10.7672 24.3335C9.36137 25.6355 7.2335 24.165 7.90554 22.3763C6.63298 23.9095 4.19062 22.6277 4.85154 20.6942C5.0619 20.0787 6.50871 17.6104 6.92804 17.0437C8.1395 15.4068 10.5353 16.5814 10.0896 18.5197H10.0889Z" fill="#2036A4"/>
</g>
<defs>
<clipPath id="clip0_984_756">
<rect width="26.5959" height="22.5177" fill="white" transform="translate(4.0195 6.4751)"/>
</clipPath>
</defs>
</svg>
