<svg width="11" height="20" viewBox="0 0 11 20" fill="none" xmlns="http://www.w3.org/2000/svg">
<path d="M1.48892 0.651096L10.0392 9.4225C10.1894 9.57656 10.2734 9.7832 10.2734 9.99835C10.2734 10.2135 10.1894 10.4201 10.0392 10.5742L1.48892 19.3489C1.41896 19.4207 1.33533 19.4778 1.24294 19.5168C1.15056 19.5558 1.0513 19.5759 0.951019 19.5759C0.850742 19.5759 0.751481 19.5558 0.659095 19.5168C0.56671 19.4778 0.483072 19.4207 0.413119 19.3489C0.26919 19.2016 0.188611 19.0038 0.188611 18.7978C0.188611 18.5918 0.26919 18.394 0.413119 18.2467L8.45357 9.99835L0.413119 1.75165C0.269684 1.60439 0.189417 1.40694 0.189417 1.20137C0.189417 0.995801 0.269684 0.798355 0.413119 0.651096C0.483072 0.579249 0.56671 0.522145 0.659095 0.483153C0.751481 0.444161 0.850742 0.424072 0.951019 0.424072C1.0513 0.424072 1.15056 0.444161 1.24294 0.483153C1.33533 0.522145 1.41896 0.579249 1.48892 0.651096Z" fill="white"/>
</svg>
