<svg width="22" height="22" viewBox="0 0 22 22" fill="none" xmlns="http://www.w3.org/2000/svg">
<path d="M10.3125 10.3125L10.3501 10.2942C10.4676 10.2354 10.5995 10.2116 10.7302 10.2256C10.8608 10.2395 10.9848 10.2906 11.0873 10.3727C11.1898 10.4549 11.2667 10.5647 11.3087 10.6892C11.3507 10.8137 11.3562 10.9477 11.3245 11.0752L10.6755 13.6748C10.6435 13.8024 10.6489 13.9365 10.6908 14.0611C10.7327 14.1858 10.8096 14.2958 10.9121 14.3781C11.0147 14.4604 11.1387 14.5115 11.2695 14.5255C11.4003 14.5394 11.5323 14.5156 11.6499 14.4568L11.6875 14.4375M19.25 11C19.25 12.0834 19.0366 13.1562 18.622 14.1571C18.2074 15.1581 17.5997 16.0675 16.8336 16.8336C16.0675 17.5997 15.1581 18.2074 14.1571 18.622C13.1562 19.0366 12.0834 19.25 11 19.25C9.91659 19.25 8.8438 19.0366 7.84286 18.622C6.84193 18.2074 5.93245 17.5997 5.16637 16.8336C4.40029 16.0675 3.7926 15.1581 3.37799 14.1571C2.96339 13.1562 2.75 12.0834 2.75 11C2.75 8.81196 3.61919 6.71354 5.16637 5.16637C6.71354 3.61919 8.81196 2.75 11 2.75C13.188 2.75 15.2865 3.61919 16.8336 5.16637C18.3808 6.71354 19.25 8.81196 19.25 11ZM11 7.5625H11.0073V7.56983H11V7.5625Z" stroke="white" stroke-opacity="0.7" stroke-width="1.5" stroke-linecap="round" stroke-linejoin="round"/>
</svg>
