<svg width="83" height="88" viewBox="0 0 83 88" fill="none" xmlns="http://www.w3.org/2000/svg">
<g clip-path="url(#clip0_211_4586)">
<path d="M26.5194 42.6912H21.3789C20.6882 41.5298 20.412 40.2819 19.4139 39.279C18.3519 38.2115 13.9525 35.8946 13.7966 38.5429C13.7075 40.0591 15.2566 39.8464 16.3082 40.3142C19.356 41.672 19.4451 46.1576 16.4344 47.5917C15.2521 48.1548 13.5946 47.8688 13.8114 49.5947C14.1129 51.9966 18.4083 49.6974 19.4124 48.687C20.4075 47.687 20.6912 46.4303 21.3774 45.2749H26.5179V58.8386C26.5179 59.7463 27.9304 61.8842 28.8543 61.8842H39.6953L39.976 62.1613V84.3061C39.171 84.8076 37.858 85.0686 36.8985 85.1434C26.6902 85.9411 20.2575 75.7603 25.1767 66.9284C25.7055 65.9782 27.164 64.8741 26.4125 63.7421C24.9079 61.4766 22.5433 66.0662 22.0577 67.1704C21.7294 67.9167 21.367 69.6632 21.1101 70.065C20.9883 70.257 20.3303 70.4755 20.0733 70.565C12.3395 73.2587 5.92909 65.7436 8.94271 58.2843C9.25758 57.5057 10.021 56.9939 9.55464 56.0232C9.30066 55.4938 6.4326 54.5363 5.5949 54.0275C-1.67254 49.6197 -1.90869 38.9769 5.14784 34.2376C6.43854 33.371 8.04857 33.069 9.08084 32.4003C10.48 31.4941 9.21897 30.4941 8.85062 29.5908C5.58451 21.5699 13.2827 14.2264 21.1086 17.904C21.4546 19.4378 22.0161 20.9085 22.8137 22.2649C23.3885 23.2444 25.1589 26.1126 26.411 24.2269C27.167 23.089 25.3297 21.4379 24.7638 20.3411C19.6723 10.4828 29.6489 -0.435643 39.9775 3.66134V25.8061L39.6968 26.0833H34.4627L26.9784 33.4576C26.8581 33.6232 26.5194 34.157 26.5194 34.2963V42.6926V42.6912Z" fill="#2036A4"/>
<path d="M35.5842 28.667H57.0805L57.3612 28.9441V59.0248L57.0805 59.302H29.603L29.3223 59.0248V34.8491L35.5842 28.667ZM36.7486 34.984C33.9251 35.5574 34.6084 40.194 37.9725 39.5121C40.7351 38.952 40.1202 34.3007 36.7486 34.984Z" fill="#2036A4"/>
<path d="M60.4907 0.105748C68.1547 -1.17291 69.4217 9.49331 62.4186 10.4978C60.7997 10.7294 59.6634 10.1136 58.2435 9.49478L51.2895 14.6431L51.1677 25.7801C50.9909 26.3138 49.0898 26.0748 48.5655 26.0015C48.3739 25.8695 48.4051 25.6422 48.3813 25.4457C48.0828 23.0131 48.1481 16.8588 48.3813 14.3557C48.463 13.4862 48.6338 13.3703 49.2368 12.8014C51.3221 10.8365 54.5333 9.23084 56.7152 7.2674C55.5344 4.47693 57.4311 0.616038 60.4922 0.105748H60.4907Z" fill="#2036A4"/>
<path d="M48.6961 61.9108C49.2249 61.9474 50.9834 61.6336 51.1676 62.1879L51.2894 73.3248L58.2435 78.4732C60.1936 77.5435 61.4308 77.02 63.5815 77.7972C67.8546 79.3398 68.2839 85.1641 64.3346 87.3167C59.904 89.7303 54.9669 85.3283 56.7136 80.7005C54.5318 78.7386 51.3206 77.1315 49.2353 75.1665C48.6337 74.6005 48.4614 74.4832 48.3798 73.6122C48.1481 71.1268 48.0782 64.9314 48.3798 62.5222C48.3991 62.3697 48.3753 62.1923 48.4704 62.0574L48.6946 61.9108H48.6961Z" fill="#2036A4"/>
<path d="M67.2681 25.4366C64.2248 24.136 62.3043 21.4482 63.6262 18.1503C66.022 12.1691 75.2351 15.0065 73.7587 21.3265C73.2448 23.5216 71.7447 24.4175 69.9163 25.466C69.6327 28.7374 70.1896 32.3681 69.8956 35.5955C69.8139 36.4885 69.6431 36.8639 68.6747 36.9739C66.0933 37.2701 62.9311 36.7686 60.2858 36.9445L60.0616 36.7979C59.8878 36.553 59.8403 34.6512 60.2606 34.3872H66.9904L67.2711 34.1101V25.4366H67.2681Z" fill="#2036A4"/>
<path d="M60.2591 53.5804C59.7972 53.4396 59.9591 51.617 60.0601 51.1697L60.2843 51.0231C62.9311 51.1991 66.0917 50.6976 68.6732 50.9938C69.6415 51.1052 69.8124 51.4791 69.894 52.3721C70.1881 55.5996 69.6326 59.2288 69.9148 62.5017C71.7432 63.5501 73.2448 64.4461 73.7572 66.6412C75.2351 72.9611 66.0205 75.7985 63.6247 69.8173C62.3028 66.518 64.2233 63.8302 67.2666 62.531V53.8576L66.9859 53.5804H60.2561H60.2591Z" fill="#2036A4"/>
<path d="M73.8774 47.7941C73.2655 47.2193 72.5229 45.3658 72.0357 45.2749L60.2842 45.25C59.7332 45.0711 60.0317 43.4962 60.0035 42.9947L60.152 42.7733L72.1902 42.6633C73.0858 41.3392 73.5893 40.0518 75.1355 39.2966C80.3488 36.7525 85.4061 42.8936 81.7553 47.3087C79.8007 49.671 76.1291 49.91 73.8745 47.7941H73.8774Z" fill="#2036A4"/>
</g>
<defs>
<clipPath id="clip0_211_4586">
<rect width="83" height="88" fill="white"/>
</clipPath>
</defs>
</svg>
