<svg width="45" height="52" viewBox="0 0 45 52" fill="none" xmlns="http://www.w3.org/2000/svg">
<g clip-path="url(#clip0_1638_32)">
<path d="M6.48444 3.24072C2.94382 3.24072 0.0651855 6.14704 0.0651855 9.7217V42.1266C0.0651855 45.7013 2.94382 48.6076 6.48444 48.6076H38.5807C42.1213 48.6076 45 45.7013 45 42.1266V9.7217C45 6.14704 42.1213 3.24072 38.5807 3.24072H6.48444ZM36.2838 11.747L25.8726 23.7571L38.1193 40.1013H28.5306L21.0281 30.1874L12.4323 40.1013H7.66799L18.8014 27.2507L7.05616 11.747H16.8856L23.676 20.8103L31.5195 11.747H36.2838ZM32.4925 37.2254L15.4513 14.471H12.6128L29.8445 37.2254H32.4824H32.4925Z" fill="white"/>
</g>
<defs>
<clipPath id="clip0_1638_32">
<rect width="44.9348" height="51.8478" fill="white" transform="translate(0.0651855)"/>
</clipPath>
</defs>
</svg>
